<svg class="icon" viewBox="0 0 1626 1024" xmlns="http://www.w3.org/2000/svg" width="101.625" height="64"><defs><style/></defs><path d="M470.163 673.603l46.53-46.53 46.531 46.53a10.44 10.44 0 0 0 14.647 0l49.363-46.854 46.693 46.692a10.52 10.52 0 0 0 14.728 0l49.525-47.097 49.525 47.097a10.44 10.44 0 0 0 14.485 0l49.768-47.259 52.357 47.421a10.52 10.52 0 0 0 14.161 0l52.6-47.259 52.6 47.583a10.358 10.358 0 0 0 7.04 2.751 10.196 10.196 0 0 0 7.04-2.751l52.6-47.583 52.6 47.583a10.44 10.44 0 0 0 14.486 0l55.19-55.27a10.277 10.277 0 0 0 3.156-7.445V56.646A56.646 56.646 0 0 0 1159.14 0H458.67a56.646 56.646 0 0 0-56.645 56.646v559.34a10.844 10.844 0 0 0 3.075 7.445l50.172 50.172a10.682 10.682 0 0 0 14.89 0zM423.066 56.646a35.606 35.606 0 0 1 35.606-35.525h700.389a35.606 35.606 0 0 1 35.606 35.525v550.277l-45.155 45.074-52.196-47.178a10.44 10.44 0 0 0-14.08 0l-52.6 47.582-52.6-47.582a10.034 10.034 0 0 0-7.04-2.752 10.358 10.358 0 0 0-7.04 2.752l-52.6 47.582-52.52-47.582a10.52 10.52 0 0 0-14.323 0l-49.525 47.097-49.525-47.097a10.6 10.6 0 0 0-14.566 0l-49.282 46.611-46.774-46.692a10.44 10.44 0 0 0-14.647 0l-49.363 46.854-46.693-46.692a10.682 10.682 0 0 0-14.89 0l-46.53 46.53-39.652-39.652zm776.537 855.599a35.687 35.687 0 0 0 30.427-39.895l-24.843-192.597-32.37 41.838a10.52 10.52 0 0 1-14.323 2.185l-58.265-40.462-45.964 53.976a10.52 10.52 0 0 1-14 1.86l-58.264-40.46-45.883 53.894a10.52 10.52 0 0 1-14 1.861l-58.022-40.461-43.213 53.247a10.52 10.52 0 0 1-14.404 1.861l-55.19-40.461-43.05 53.085a10.44 10.44 0 0 1-14.567 1.7l-52.357-40.462-42.485 53.41a10.44 10.44 0 0 1-14.566 1.699L532.07 757.6l-40.462 52.115a10.196 10.196 0 0 1-7.04 4.046 10.44 10.44 0 0 1-8.092-2.104l-35.768-27.514 24.277 187.903a35.768 35.768 0 0 0 39.895 30.67z" fill="#cdcdcd"/><path d="M1222.747 651.673a10.6 10.6 0 0 0-7.688-8.82 10.44 10.44 0 0 0-11.086 3.722l-41.514 53.976-57.94-40.057a10.358 10.358 0 0 0-13.92 1.78l-46.045 53.976-58.264-40.462a10.6 10.6 0 0 0-14 1.78l-45.964 53.976-58.265-40.461a10.6 10.6 0 0 0-14.161 2.023l-43.051 53.085-55.27-40.461a10.52 10.52 0 0 0-14.324 1.942l-42.89 53.004-52.356-40.461a10.52 10.52 0 0 0-14.567 1.7l-42.889 52.923-52.357-40.462a10.44 10.44 0 0 0-14.728 1.943l-40.462 52.114-47.906-36.982a10.52 10.52 0 0 0-16.832 9.711l27.757 213.07a56.646 56.646 0 0 0 55.998 49.282 57.536 57.536 0 0 0 7.445-.485l694.482-90.472a56.646 56.646 0 0 0 48.554-63.444zm-743.925 343.68a35.363 35.363 0 0 1-13.676-23.548L440.869 783.9l36.091 27.838a10.44 10.44 0 0 0 8.093 2.104 10.196 10.196 0 0 0 7.04-4.046l40.461-52.115 52.196 40.462a10.44 10.44 0 0 0 14.566-1.7l42.89-52.842 52.356 40.461a10.44 10.44 0 0 0 14.566-1.7l43.052-53.085 55.19 40.462a10.52 10.52 0 0 0 14.403-1.861l43.213-53.248 58.022 40.462a10.52 10.52 0 0 0 14-1.861l46.045-53.895 58.265 40.461a10.52 10.52 0 0 0 14-1.86l45.235-54.786 58.265 40.462a10.52 10.52 0 0 0 14.323-2.185l32.37-41.837 24.519 192.758a35.687 35.687 0 0 1-30.67 39.895l-694.32 90.472a35.525 35.525 0 0 1-26.218-7.364zm17.641-892.662h535.548v46.046H496.463V102.69zm0 97.917H896.87v46.045H496.463v-46.045zm4.693 143.962h116.772a32.37 32.37 0 0 1 61.583 0h17.56a4.694 4.694 0 0 0 4.694-4.693v-36.658a4.694 4.694 0 0 0-4.694-4.694H501.156a4.694 4.694 0 0 0-4.693 4.694v36.658a4.694 4.694 0 0 0 4.693 4.693zm-4.693 51.872h270.93v46.045h-270.93v-46.045zm7.04 144.043h446.129a7.121 7.121 0 0 0 7.04-7.04v-31.722a7.04 7.04 0 0 0-7.04-7.04h-79.71a10.358 10.358 0 0 1-10.358 10.52 10.682 10.682 0 0 1-9.306-5.503 53.166 53.166 0 0 0-3.075-5.018H770.55c-1.942 2.914-3.075 4.937-3.156 5.018a10.52 10.52 0 0 1-14.242 4.208 10.358 10.358 0 0 1-5.341-9.226H503.503a7.04 7.04 0 0 0-7.04 7.04v32.37a7.121 7.121 0 0 0 7.04 6.393z" fill="#cdcdcd"/><path d="M648.679 321.588a32.37 32.37 0 0 0-30.75 22.982 34.878 34.878 0 0 0-1.457 9.225 32.37 32.37 0 1 0 64.738 0 34.878 34.878 0 0 0-1.457-9.225 32.37 32.37 0 0 0-31.074-22.982zm288.005 34.554a32.288 32.288 0 1 0 64.577 0 32.288 32.288 0 1 0-64.577 0zM753.15 503.584a10.52 10.52 0 0 0 14.243-4.208s1.214-2.104 3.156-5.017c6.312-8.82 20.555-27.029 38.681-27.029s32.37 18.046 38.358 27.029a53.166 53.166 0 0 1 3.075 5.017 10.682 10.682 0 0 0 9.306 5.503 10.358 10.358 0 0 0 10.358-10.52 10.115 10.115 0 0 0-1.133-5.017c-.97-1.7-23.63-43.051-59.964-43.051s-58.993 41.351-59.964 43.05a11.006 11.006 0 0 0-1.052 5.018 10.358 10.358 0 0 0 4.937 9.225zm-567.027 6.231a24.277 24.277 0 0 0-24.277-24.277H45.316a24.277 24.277 0 1 0 0 48.554h116.53a24.277 24.277 0 0 0 24.277-24.277z" fill="#cdcdcd"/><path d="M207.163 509.815a45.317 45.317 0 0 0-45.317-45.317H45.316a45.317 45.317 0 1 0 0 90.634h116.53a45.398 45.398 0 0 0 45.317-45.317zm-186.123 0a24.277 24.277 0 0 1 24.277-24.277h116.53a24.277 24.277 0 0 1 0 48.554H45.316a24.277 24.277 0 0 1-24.277-24.277zm151.569-263.809a24.277 24.277 0 1 0-34.312 34.311l82.38 82.38a24.277 24.277 0 1 0 34.311-34.311z" fill="#cdcdcd"/><path d="M187.499 231.116a45.317 45.317 0 0 0-64.091 64.091l82.38 82.38a45.317 45.317 0 1 0 64.09-64.091zm67.49 131.581a24.277 24.277 0 0 1-34.312 0l-82.38-82.38a24.277 24.277 0 1 1 34.312-34.311l82.38 82.38a24.277 24.277 0 0 1 0 34.311zm-17.156 286.306a24.277 24.277 0 0 0-17.156 7.04l-82.38 82.46a24.277 24.277 0 0 0 0 34.312 24.277 24.277 0 0 0 34.312 0l82.38-82.38a24.277 24.277 0 0 0-17.156-41.432z" fill="#cdcdcd"/><path d="M205.787 641.153l-82.38 82.46a45.317 45.317 0 0 0 64.092 64.092l82.38-82.46a45.317 45.317 0 1 0-64.092-64.092zm49.201 49.282l-82.38 82.38a24.277 24.277 0 0 1-34.31 0 24.277 24.277 0 0 1 0-34.311l82.38-82.461a24.277 24.277 0 0 1 34.31 34.392zm1326.167-204.169h-116.448a24.277 24.277 0 0 0 0 48.554h116.529a24.277 24.277 0 0 0 0-48.554z" fill="#cdcdcd"/><path d="M1581.155 465.226h-116.448a45.317 45.317 0 0 0 0 90.634h116.529a45.317 45.317 0 1 0 0-90.634zm0 69.594h-116.448a24.277 24.277 0 0 1 0-48.554h116.529a24.277 24.277 0 0 1 0 48.554zm-175.36-170.666l82.38-82.704a24.277 24.277 0 0 0-34.393-34.311l-82.38 82.38a24.277 24.277 0 1 0 34.393 34.635z" fill="#cdcdcd"/><path d="M1388.558 391.991a45.155 45.155 0 0 0 32.37-13.271l82.46-82.38a45.317 45.317 0 0 0-64.091-64.09l-82.703 82.379a45.317 45.317 0 0 0 32.369 77.362zm-17.155-62.472l82.38-82.38a24.277 24.277 0 1 1 34.391 34.311l-82.38 82.704a24.277 24.277 0 0 1-34.391 0 24.277 24.277 0 0 1 0-34.312zm34.392 327.738a24.277 24.277 0 0 0-34.392 34.311l82.38 82.38a24.277 24.277 0 1 0 34.391-34.312z" fill="#cdcdcd"/><path d="M1420.604 642.367a45.317 45.317 0 0 0-64.01 64.091l82.38 82.38a45.317 45.317 0 1 0 64.09-64.091zm67.57 131.58a24.277 24.277 0 0 1-34.392 0l-82.38-82.379a24.277 24.277 0 0 1 34.393-34.311l82.38 82.38a24.277 24.277 0 0 1 0 34.31z" fill="#cdcdcd"/></svg>