<svg class="icon" viewBox="0 0 1025 1024" xmlns="http://www.w3.org/2000/svg" width="64.063" height="64"><defs><style/></defs><path d="M565.474 578.553h67.128a16.498 16.498 0 0 0 17.067-15.36v-73.386a17.066 17.066 0 0 0-14.791-17.635h-69.404a16.498 16.498 0 0 0-17.066 15.36v73.386a15.929 15.929 0 0 0 14.79 17.635zm170.665 0h67.128a15.929 15.929 0 0 0 17.066-15.36v-73.386a17.066 17.066 0 0 0-14.79-17.635h-72.248a16.498 16.498 0 0 0-17.067 15.36v73.386a15.929 15.929 0 0 0 14.791 17.635zm-335.64 0h64.283a15.929 15.929 0 0 0 17.067-15.36v-73.386a17.066 17.066 0 0 0-14.791-17.635h-68.835a17.066 17.066 0 0 0-17.066 15.36v73.386a15.929 15.929 0 0 0 14.79 17.635h2.276zm335.64 252.015h67.128a16.498 16.498 0 0 0 17.066-15.36v-75.661a16.498 16.498 0 0 0-14.79-17.636h-72.248a15.929 15.929 0 0 0-17.067 15.36v71.11a16.498 16.498 0 0 0 14.791 17.636zm-170.665 0h67.128a17.066 17.066 0 0 0 17.067-15.36v-75.661a17.066 17.066 0 0 0-14.791-17.636h-69.404a15.929 15.929 0 0 0-17.066 15.36v71.11a16.498 16.498 0 0 0 14.79 17.636zm-337.916 0h69.404a17.066 17.066 0 0 0 17.067-15.36v-75.661a17.066 17.066 0 0 0-14.791-17.636h-71.68a15.929 15.929 0 0 0-17.066 15.36v71.11a16.498 16.498 0 0 0 17.066 22.187zm0-252.015h69.404a16.498 16.498 0 0 0 17.067-15.36v-73.386a17.066 17.066 0 0 0-14.791-17.635h-71.68a16.498 16.498 0 0 0-17.066 15.36v73.386a15.929 15.929 0 0 0 14.79 17.635zm170.665 252.015h66.56a16.498 16.498 0 0 0 17.066-15.36v-75.661a16.498 16.498 0 0 0-14.791-17.636h-68.835a15.929 15.929 0 0 0-17.066 15.36v73.386a16.498 16.498 0 0 0 17.066 19.91z" fill="#409EFF"/><path d="M903.39 1023.987H120.61A118.896 118.896 0 0 1 .006 903.953V179.198A119.465 119.465 0 0 1 120.609 60.87H903.39a119.465 119.465 0 0 1 120.603 118.328v724.755a119.465 119.465 0 0 1-120.603 120.034zM120.61 139.945a39.822 39.822 0 0 0-40.39 39.253v724.755a40.39 40.39 0 0 0 40.39 39.822H903.39a40.39 40.39 0 0 0 40.39-39.822V179.198a39.822 39.822 0 0 0-40.39-39.253H120.61z" fill="#409EFF"/><path d="M66.565 291.836h890.869v83.057H66.564zm217.882-84.194a40.39 40.39 0 0 1-39.822-41.528V39.822a39.822 39.822 0 0 1 79.643 0v126.292a40.39 40.39 0 0 1-39.821 41.528zm430.643 0a40.96 40.96 0 0 1-39.821-41.528V39.822a40.39 40.39 0 0 1 80.212 0v126.292a40.96 40.96 0 0 1-39.822 41.528z" fill="#409EFF"/></svg>