<svg class="icon" viewBox="0 0 1024 1024" xmlns="http://www.w3.org/2000/svg" width="64" height="64"><defs><style/></defs><path d="M938.667 974.933H85.333a42.667 42.667 0 0 1-42.666-42.666V121.6a42.667 42.667 0 1 1 85.333 0v768h810.667a42.667 42.667 0 0 1 0 85.333z" fill="#2c2c2c"/><path d="M298.667 761.6A42.667 42.667 0 0 1 256 718.933V484.267a42.667 42.667 0 0 1 85.333 0v234.666a42.667 42.667 0 0 1-42.666 42.667zm256 0A42.667 42.667 0 0 1 512 718.933V249.6a42.667 42.667 0 0 1 85.333 0v469.333a42.667 42.667 0 0 1-42.666 42.667zm256 0A42.667 42.667 0 0 1 768 718.933v-352a42.667 42.667 0 0 1 85.333 0v352a42.667 42.667 0 0 1-42.666 42.667z" fill="#2c2c2c"/></svg>