<svg class="icon" viewBox="0 0 1024 1024" xmlns="http://www.w3.org/2000/svg" width="32" height="32"><defs><style/></defs><path d="M649.798 617.005a36.004 36.004 0 0 1-36.328 35.666H431.796a36.004 36.004 0 0 1-36.328-35.666V402.993a36.008 36.008 0 0 1 36.328-35.67h145.346v.052a8.961 8.961 0 0 1 6.273 2.503l63.798 62.619a8.751 8.751 0 0 1 2.551 6.166h.034v178.342zm-72.656-228.243v40.981a9.006 9.006 0 0 0 9.1 8.92h41.739zm54.492 67.73h-54.492a18.002 18.002 0 0 1-18.164-17.829V385.16H431.796a18.002 18.002 0 0 0-18.164 17.833v214.012a18.002 18.002 0 0 0 18.164 17.833H613.47a18.002 18.002 0 0 0 18.164-17.833V456.507zM518.411 577.128a15.993 15.993 0 1 0 10.926 4.67 14.131 14.131 0 0 0-10.926-4.67zM504.624 458.56a5.732 5.732 0 0 1 1.62-4.246 5.818 5.818 0 0 1 4.17-1.775h15.924a5.797 5.797 0 0 1 5.79 6.1L526.2 564.674h-17.13zm-127.32-19.874a18.002 18.002 0 0 0-18.165 17.83v214.012a18.002 18.002 0 0 0 18.165 17.833h181.674a18.002 18.002 0 0 0 18.164-17.833 9.082 9.082 0 0 1 18.164 0 36.004 36.004 0 0 1-36.328 35.67H377.304a36.014 36.014 0 0 1-36.363-35.67V456.507a36.011 36.011 0 0 1 36.363-35.667 8.92 8.92 0 1 1 0 17.837zm-117.98 287.406h447.414a6.831 6.831 0 0 1 0 13.659H259.323a6.831 6.831 0 1 1 0-13.66zm-146.726 40.96h202.217a6.835 6.835 0 0 1 0 13.666H112.598a6.835 6.835 0 0 1 0-13.666zm275.942 0h503.457a6.835 6.835 0 1 1 0 13.666H388.54a6.835 6.835 0 0 1 0-13.666zm-340.98 0h29.71a6.835 6.835 0 0 1 0 13.666H47.56a6.835 6.835 0 1 1 0-13.666zm683.339-40.998h20.163a6.831 6.831 0 1 1 0 13.659H730.9a6.831 6.831 0 1 1 0-13.66zm202.596 40.998h36.294a6.835 6.835 0 0 1 0 13.666h-36.294a6.835 6.835 0 1 1 0-13.666zm-223.552 65.594h73.863a6.835 6.835 0 0 1 0 13.666h-73.863a6.835 6.835 0 1 1 0-13.666zm-31.468 0h10.685a6.835 6.835 0 0 1 0 13.666h-10.685a6.835 6.835 0 0 1 0-13.666zm-268.945 0H526.2a6.835 6.835 0 1 1 0 13.666H409.53a6.835 6.835 0 1 1 0-13.666zm175.23 0h73.862a6.835 6.835 0 0 1 0 13.666H584.76a6.835 6.835 0 1 1 0-13.666zM213.896 726.055h20.198a6.831 6.831 0 0 1 0 13.659h-20.198a6.831 6.831 0 0 1 0-13.66zm132.732 40.998h16.027a6.835 6.835 0 0 1 0 13.666h-16.027a6.835 6.835 0 0 1 0-13.666zM78.166 362.413a37.4 37.4 0 1 1 37.43-37.4 37.407 37.407 0 0 1-37.43 37.4zm.138-17.1a20.173 20.173 0 1 0-20.198-20.17 20.16 20.16 0 0 0 20.198 20.17zm356.904-137.312a3.536 3.536 0 1 1 0 7.069h-26.85v26.801a3.533 3.533 0 1 1-7.066 0v-26.805h-26.85a3.533 3.533 0 0 1 0-7.065h26.85v-26.805a3.533 3.533 0 0 1 7.066 0V208h26.85zm334.914 67.02a28.425 28.425 0 1 1 28.47-28.424 28.477 28.477 0 0 1-28.47 28.424zm-.551-12.7a16.289 16.289 0 1 0-16.303-16.29 16.3 16.3 0 0 0 16.303 16.29zM58.933 512.307a2.554 2.554 0 0 1 0 5.108H33.6v25.45a2.585 2.585 0 0 1-3.86 2.21 2.544 2.544 0 0 1-1.276-2.21v-25.463H2.718a2.554 2.554 0 0 1 0-5.105h25.746v-25.402a2.578 2.578 0 0 1 2.585-2.554 2.547 2.547 0 0 1 2.551 2.554v25.42zm917.508-119.151a1.168 1.168 0 0 1-.517 1.96 1.182 1.182 0 0 1-1.138-.306l-11.615-11.588-11.58 11.588a1.168 1.168 0 0 1-1.655 0 1.127 1.127 0 0 1 0-1.654l11.58-11.588-11.58-11.591a1.165 1.165 0 0 1 .517-1.958 1.19 1.19 0 0 1 1.137.303l11.581 11.591 11.615-11.59a1.172 1.172 0 0 1 1.655 0 1.186 1.186 0 0 1 0 1.654l-11.581 11.59zm25.057 153.146a22.297 22.297 0 1 1 22.335-22.3 22.307 22.307 0 0 1-22.335 22.3zm-.069-8.651a14.07 14.07 0 1 0-14.062-14.066 14.097 14.097 0 0 0 14.062 14.066zM750.855 449.93c-2.964-2.974-5.962-5.962-8.927-8.923-.344-.32-.31-.496 0-.8.724-.69 1.414-1.416 2.137-2.15l.38.344c2.998 3.01 6.031 6.025 9.03 9.03.31.293.276.455 0 .728-.724.69-1.413 1.43-2.172 2.188-.172-.175-.31-.293-.448-.417zm22.542 17.192l9.375 9.386a1.568 1.568 0 0 0 .103.162c-.793.782-1.585 1.561-2.378 2.312a.517.517 0 0 1-.448-.12c-1.344-1.296-2.62-2.606-3.93-3.912l-5.135-5.112-.345-.368a2.21 2.21 0 0 1 .173-.249l2.068-2.068a.303.303 0 0 1 .517-.02zm-.724-17.312c-.586-.652-1.241-1.265-1.861-1.89-.173-.171-.242-.299-.035-.506l9.237-9.213a1.434 1.434 0 0 1 .207-.144c.758.789 1.551 1.55 2.275 2.32a.383.383 0 0 1 0 .344.4.4 0 0 1-.172.19q-4.447 4.45-8.893 8.91c-.31.299-.482.292-.758 0zm-21.128 11.619c.586.644 1.24 1.268 1.86 1.885.173.172.242.307.035.507-3.067 3.067-6.135 6.145-9.237 9.22-.034.04-.103.061-.207.14-.758-.789-1.55-1.547-2.274-2.315a.376.376 0 0 1 0-.345.362.362 0 0 1 .172-.193q4.446-4.464 8.892-8.91c.31-.3.483-.293.759 0zm11.064-28.808v5.587c.034.403-.104.531-.517.517h-2.62a.345.345 0 0 1-.414-.39v-11.442a.345.345 0 0 1 .414-.404c.896 0 1.792.025 2.688 0 .38 0 .449.118.449.459v5.673zm-14.477 25.95a.345.345 0 0 1-.413.403h-11.443c-.345 0-.38-.127-.38-.423v-2.703a.345.345 0 0 1 .414-.427h11.305c.414 0 .552.093.517.493a34.338 34.338 0 0 0 0 2.664zm40.568-2.681a34.779 34.779 0 0 0 0 2.702.345.345 0 0 1-.414.382h-11.443c-.344 0-.413-.13-.413-.444.034-.89.034-1.772 0-2.664a.369.369 0 0 1 .448-.452c1.895.02 3.791 0 5.687 0h5.652a.396.396 0 0 1 .483.476zm-26.091 22.972v5.677c0 .361-.104.492-.449.482a51.218 51.218 0 0 0-2.722 0 .324.324 0 0 1-.38-.393v-11.44a.345.345 0 0 1 .414-.41c.896 0 1.792.021 2.688 0 .345 0 .483.107.449.452v5.628zm0 0"/></svg>