<svg class="icon" viewBox="0 0 1024 1024" xmlns="http://www.w3.org/2000/svg" width="256" height="256"><defs><style/></defs><path d="M151.98 139.607a7.997 7.997 0 0 0 7.996-7.997v-19.347a7.997 7.997 0 0 0-15.993 0v19.347a7.997 7.997 0 0 0 7.996 7.997zm34.11-1.23h-19.347a7.997 7.997 0 0 0 0 15.993h19.347a7.997 7.997 0 0 0 0-15.993zm-48.874 0h-19.348a7.997 7.997 0 0 0 0 15.993h19.348a7.997 7.997 0 0 0 0-15.993zm14.763 14.763a7.997 7.997 0 0 0-7.996 7.997v19.347a7.997 7.997 0 0 0 15.993 0v-19.347a7.997 7.997 0 0 0-7.997-7.997zm796.285 119.335c-21.532 0-39.05 17.518-39.05 39.05s17.518 39.05 39.05 39.05c21.533 0 39.05-17.517 39.05-39.05s-17.517-39.05-39.05-39.05zm0 62.107c-12.714 0-23.057-10.344-23.057-23.057s10.344-23.057 23.057-23.057c12.714 0 23.057 10.344 23.057 23.057 0 12.714-10.344 23.057-23.057 23.057zM731.424 48.104c13.103 0 23.763-10.66 23.763-23.764S744.527.574 731.423.574s-23.765 10.661-23.765 23.765 10.662 23.765 23.765 23.765zm0-31.537c4.284 0 7.77 3.487 7.77 7.772s-3.486 7.77-7.77 7.77-7.772-3.486-7.772-7.77c0-4.285 3.486-7.772 7.771-7.772zm-336.881 985.857a117.822 21.574 0 1 0 235.644 0 117.822 21.574 0 1 0-235.644 0zm203.529-349.387l12.4-12.399a7.999 7.999 0 0 0-.001-11.309 8 8 0 0 0-11.31 0l-12.4 12.4-12.4-12.4a7.998 7.998 0 0 0-11.307 0 7.996 7.996 0 0 0 0 11.31l12.398 12.398-12.398 12.399a7.996 7.996 0 0 0 0 11.31 7.97 7.97 0 0 0 5.654 2.341 7.973 7.973 0 0 0 5.655-2.342l12.4-12.4 12.4 12.4c1.562 1.561 3.607 2.342 5.654 2.342s4.093-.78 5.655-2.342a7.997 7.997 0 0 0 0-11.31l-12.4-12.398zm-146.437 23.71a7.97 7.97 0 0 0 5.655 2.341 7.97 7.97 0 0 0 5.655-2.342 7.996 7.996 0 0 0 0-11.31l-12.4-12.398 12.4-12.399a7.996 7.996 0 0 0 0-11.309 7.999 7.999 0 0 0-11.309 0l-12.4 12.4-12.4-12.4a7.998 7.998 0 0 0-11.308 0 7.996 7.996 0 0 0 0 11.31l12.4 12.398-12.4 12.399a7.996 7.996 0 0 0 0 11.31 7.97 7.97 0 0 0 5.655 2.341 7.973 7.973 0 0 0 5.655-2.342l12.4-12.4 12.397 12.4zm61.36 85.883c-30.165 0-58.392 11.883-79.478 33.46a7.997 7.997 0 1 0 11.438 11.179c18.053-18.473 42.217-28.645 68.042-28.645 25.826 0 49.992 10.174 68.046 28.649a7.973 7.973 0 0 0 5.72 2.408 7.997 7.997 0 0 0 5.72-13.586c-21.09-21.58-49.319-33.465-79.487-33.465z" fill="#cdcdcd"/><path d="M739.65 478.026h-27.597V400.87c0-52.25-20.485-101.512-57.684-138.71s-86.46-57.684-138.712-57.684c-52.25 0-101.513 20.486-138.712 57.683s-57.683 86.46-57.683 138.711v77.157h-34.047c-51.259 0-92.961 41.703-92.961 92.961v271.954c0 51.258 41.702 92.96 92.96 92.96h454.437c51.258 0 92.961-41.702 92.961-92.96V570.988c0-51.26-41.703-92.962-92.961-92.962zM335.256 400.87c0-99.474 80.928-180.402 180.402-180.402S696.06 301.395 696.06 400.869v77.157H335.255V400.87zM816.62 842.943c0 42.44-34.528 76.968-76.968 76.968H285.215c-42.44 0-76.968-34.528-76.968-76.968V570.988c0-42.44 34.528-76.967 76.968-76.967H739.65c42.44 0 76.968 34.527 76.968 76.967v271.954z" fill="#cdcdcd"/></svg>