<svg class="icon" viewBox="0 0 1170 1024" xmlns="http://www.w3.org/2000/svg" width="292.5" height="256"><defs><style/></defs><path d="M1018.61 360.73c12.367 23.167-14.696-41.04-62.61-41.04l-741.413.293c-27.661 0-46.825 13.897-62.916 39.418C135.58 385 0 597.114 0 642.023v288.288c.16 45.056 36.279 81.468 80.696 81.335h1008.888c44.418.133 80.537-36.28 80.696-81.335V642.023c0-44.91-151.67-281.306-151.67-281.306s-21.717-41.026 0 0v.013zM753.78 619.761a37.675 37.675 0 0 0-38.273 28.42c0 2.1.292 4.175.292 6.25 0 73.501-58.74 133.12-131.217 133.12-72.451 0-131.218-59.619-131.218-133.12 0-2.673.292-5.266.439-7.94-9.362-26.597-37.303-26.73-37.303-26.73H69.95l117.335-219.254s21.504-39.338 51.798-38.14h698.976c24.364 0 28.54 8.91 46.093 38.14l119.263 219.4H753.847l-.067-.146zm-421.274-415.33l-89.194-85.869a24.47 24.47 0 0 1-.825-34.257 23.645 23.645 0 0 1 33.752-.865l89.101 85.87a24.47 24.47 0 0 1 .878 34.23 23.605 23.605 0 0 1-33.712.878zm245.666-37.94a24.283 24.283 0 0 1-7.381-16.916l-3.205-124.702C567.147 11.588 577.56.457 590.846.005a24.044 24.044 0 0 1 24.522 23.618l3.138 124.688a24.044 24.044 0 0 1-23.246 24.802 23.658 23.658 0 0 1-16.995-6.623h-.093zm231.263 33.472a24.443 24.443 0 0 1-.878-34.204l84.646-90.55a23.645 23.645 0 0 1 33.765-.878 24.47 24.47 0 0 1 .851 34.27l-84.659 90.471a23.605 23.605 0 0 1-33.725.891z" fill="#8a8a8a"/></svg>