<svg class="icon" viewBox="0 0 1024 1024" xmlns="http://www.w3.org/2000/svg" width="32" height="32"><defs><style/></defs><path d="M959.78 942.829c0 43.83-184.037 79.363-411.05 79.363s-411.048-35.53-411.048-79.363 184.036-79.364 411.049-79.364S959.78 899 959.78 942.83" fill="#D8D8D8"/><path d="M505.75 766.021C338.493 757.246 210.333 607.8 219.526 432.197c9.193-175.602 152.253-310.82 319.516-302.044 167.262 8.775 295.378 158.218 286.185 333.82-9.193 175.606-152.213 310.82-319.475 302.048zm202.06-3.296l161.957 188.912a27.484 27.484 0 0 0 38.78 2.962 27.557 27.557 0 0 0 2.959-38.823L749.548 726.864a27.484 27.484 0 0 0-38.78-2.962 27.55 27.55 0 0 0-2.958 38.823z" fill="#FFF"/><path d="M890.644 963.055a29.282 29.282 0 0 1-22.26-10.235L706.43 763.908c-10.522-12.279-9.11-30.843 3.151-41.379a29.292 29.292 0 0 1 41.343 3.159L912.878 914.6c10.526 12.279 9.113 30.84-3.151 41.375a29.3 29.3 0 0 1-19.083 7.08zm-161.98-243.979a25.654 25.654 0 0 0-16.715 6.202c-10.747 9.236-11.989 25.505-2.763 36.267L871.14 950.457a25.669 25.669 0 0 0 36.216 2.766c10.75-9.236 11.989-25.502 2.763-36.263L748.165 728.048a25.636 25.636 0 0 0-19.5-8.972zM521.141 768.24a298.06 298.06 0 0 1-15.485-.407c-167.999-8.815-297.172-159.42-287.946-335.73 8.928-170.559 143.314-304.165 305.936-304.165a298.2 298.2 0 0 1 15.489.407c167.981 8.815 297.132 159.42 287.9 335.73C818.11 634.634 683.744 768.24 521.14 768.24zm2.505-636.675c-160.69 0-293.48 132.096-302.309 300.727-9.124 174.31 118.506 323.204 284.508 331.914 5.08.265 10.224.4 15.293.4 160.672 0 293.443-132.096 302.27-300.727 9.127-174.31-118.488-323.208-284.469-331.914a294.467 294.467 0 0 0-15.293-.4z" fill="#979797"/><path d="M95.33 713.54a4.513 4.513 0 0 1-4.47-4.524v-66.177c0-2.487 2.009-4.527 4.47-4.527s4.47 2.04 4.47 4.527v66.177c0 2.487-2.008 4.527-4.47 4.527m114.465-494.108a4.513 4.513 0 0 1-4.47-4.527v-66.173c0-2.487 2.008-4.528 4.47-4.528s4.47 2.04 4.47 4.528v66.176a4.51 4.51 0 0 1-4.47 4.524" fill="#9C9C9C"/><path d="M54.438 679.248c0-2.49 2.015-4.528 4.47-4.528h65.373c2.455 0 4.47 2.033 4.47 4.528 0 2.49-2.015 4.527-4.47 4.527H58.907c-2.454 0-4.47-2.033-4.47-4.527m119.668-499.311c0-2.487 2.015-4.524 4.47-4.524h65.374c2.454 0 4.47 2.033 4.47 4.528s-2.016 4.527-4.47 4.527h-65.37a4.517 4.517 0 0 1-4.474-4.527m43.979 654.653l-18.517-33.823-33.874-18.499 33.874-18.505 18.517-33.82 18.52 33.82 33.874 18.505-33.874 18.499-18.516 33.823zm-44.82-52.318l28.972 15.819 15.848 28.94 15.844-28.937 28.973-15.826-28.973-15.83-15.844-28.936-15.848 28.936-28.973 15.83z" fill="#9C9C9C"/><path d="M832.16 3.776l29.555 53.974 54.039 29.514-54.043 29.524-29.55 53.963-29.554-53.963-54.04-29.524 54.04-29.514zm85.765 509.713l15.72 28.718 28.756 15.707-28.755 15.706-15.721 28.719-15.728-28.719-28.755-15.706 28.755-15.707z" fill="#FFF"/><path d="M832.16 174.53l-30.89-56.405-56.489-30.861 56.494-30.854L832.16-.004l30.89 56.414 56.493 30.854-56.493 30.86-30.89 56.407zm-79.802-87.266l51.585 28.185 28.214 51.523 28.214-51.523 51.592-28.185-51.592-28.178-28.21-51.53-28.21 51.53-51.593 28.178zm165.567 518.85l-17.064-31.158-31.206-17.042 31.206-17.043 17.064-31.162 17.057 31.162 31.206 17.043-31.206 17.042-17.06 31.159zm-40.696-48.2l26.304 14.37 14.388 26.272 14.389-26.272 26.304-14.37-26.304-14.37-14.389-26.276-14.388 26.275-26.304 14.37z" fill="#9C9C9C"/><path d="M509.185 721.433c-138.543-7.269-244.697-131.057-237.084-276.514 7.614-145.449 126.112-257.452 264.656-250.18 138.547 7.269 244.665 131.054 237.048 276.506-7.614 145.457-126.076 257.453-264.62 250.188z" fill="#FFF"/><path d="M521.933 723.582c-4.255 0-8.576-.112-12.842-.338C369.763 715.936 262.64 591.04 270.29 444.83c7.406-141.445 118.85-252.239 253.72-252.239 4.258 0 8.579.109 12.845.338 139.31 7.308 246.419 132.208 238.769 278.416-7.407 141.44-118.844 252.238-253.691 252.238zm2.073-527.361c-132.934 0-242.792 109.283-250.093 248.8-7.552 144.207 98.036 267.397 235.367 274.6 4.2.218 8.46.327 12.65.327 132.919 0 242.754-109.284 250.063-248.797 7.545-144.21-98.025-267.393-235.334-274.596a241.463 241.463 0 0 0-12.653-.334z" fill="#727272"/><path d="M355.785 616.154l-156.36 289.242 14.843 16.945h301.268v-18.154L373.717 616.154z" fill="#FFF"/><path d="M517.35 924.156H213.445l-16.211-18.513 157.474-291.305h20.143l142.504 289.428v20.39zm-302.261-3.63H513.72v-15.918L372.588 617.97h-15.72L201.626 905.15l13.463 15.376z" fill="#E5E5E5"/><path d="M347.703 857.41h26.014v26.013h-26.014V857.41z" fill="#E5E5E5"/><path d="M375.079 884.785h-28.74v-28.74h28.74v28.74zm-26.018-2.723h23.295v-23.295H349.06v23.295z" fill="#939393"/><path d="M347.703 714.32v104.063a13.009 13.009 0 1 0 26.018 0V714.32a13.009 13.009 0 1 0-26.018 0z" fill="#E5E5E5"/><path d="M360.708 832.753a14.385 14.385 0 0 1-14.37-14.37V714.32a14.385 14.385 0 0 1 14.37-14.366 14.385 14.385 0 0 1 14.37 14.366v104.063a14.385 14.385 0 0 1-14.37 14.37zm0-130.076a11.655 11.655 0 0 0-11.647 11.643v104.063a11.662 11.662 0 0 0 11.647 11.647 11.662 11.662 0 0 0 11.648-11.647V714.32a11.658 11.658 0 0 0-11.648-11.643z" fill="#939393"/><path d="M717.86 552.678l-98.207 102.51c-14.926 15.578-39.11 15.822-55.052.547L340.888 441.412c-16.476-15.782-17.754-38.384-3.046-53.738l99.441-103.798c6.844-7.141 15.304-10.92 24.464-10.924 10.1-.008 20.096 4.607 28.149 12.987l223.68 214.294c17.005 16.29 18.726 37.37 4.283 52.445zM339.261 389.036c-13.924 14.533-12.668 35.965 2.984 50.96L565.96 654.32c15.147 14.512 38.11 14.298 52.274-.486l98.207-102.509c13.633-14.229 11.934-34.19-4.223-49.668L488.505 287.333c-7.704-8.02-17.195-12.417-26.758-12.41-8.612.004-16.582 3.573-23.048 10.322l-99.437 103.79zM651.9 598.294a18.858 18.858 0 0 1-26.635.57 18.865 18.865 0 0 1-.574-26.638 18.865 18.865 0 0 1 26.639-.57 18.865 18.865 0 0 1 .57 26.638zm-25.79-24.707c-6.436 6.72-6.204 17.424.513 23.861s17.42 6.209 23.857-.512c6.437-6.72 6.209-17.42-.512-23.857s-17.42-6.208-23.857.508zm67.79-81.077L556.66 635.763 361.83 449.109l137.24-143.252L693.9 492.51zM556.598 632.986l134.524-140.417-191.99-183.935-134.525 140.417 191.99 183.935zm-116.894-301.04l-58.676 61.247c-1.238 1.292-5.003 5.22-8.935 1.452-2.425-2.323-2.015-5.769 1.068-8.986l58.679-61.25c1.238-1.292 5.003-5.22 8.935-1.455 3.932 3.768.163 7.7-1.071 8.993zm-65.127 55.071c-1.097 1.144-3.395 4.037-1.126 6.209 1.51 1.445 3.133 1.76 6.158-1.395l58.675-61.246c3.025-3.155 2.64-4.767 1.13-6.212s-3.134-1.76-6.158 1.394l-58.68 61.25z" fill="#848484"/><path d="M381.726 456.254L507.203 323.51l15.227 14.392-125.476 132.745zm25.753 24.348l100.29-106.104 15.224 14.393-100.29 106.103zm25.712 24.304l100.287-106.1 15.228 14.392-100.291 106.1zm27.709 26.195l69.71-73.747 15.227 14.393-69.709 73.746z" fill="#E2E2E2"/><path d="M362.204 629.355c.011-.018.007-.018.015-.004l143.688 279.966c.076.146.076.15.073.15l-290.238.13c.018 0 .004-.022-.003-.004l146.403-280.115.062-.123zm-23.116-11.93l-146.47 280.241c-8.862 17.413 3.707 37.894 23.095 37.948l290.274-.13c19.602 0 32.15-20.855 22.993-38.18L385.292 617.325c-9.945-18.792-36.692-18.563-46.263.215l.059-.117z" fill="#E5E5E5"/><path d="M215.713 936.972a27.201 27.201 0 0 1-23.298-13.103 27.328 27.328 0 0 1-1.013-26.823l146.455-280.22c4.781-9.299 13.869-14.847 24.318-14.847 10.351 0 19.439 5.5 24.315 14.708l143.699 279.988a27.176 27.176 0 0 1-.762 26.922 27.158 27.158 0 0 1-23.444 13.241l-290.27.134zm124.45-318.941l.112.061-146.448 280.206a24.609 24.609 0 0 0 .915 24.155 24.507 24.507 0 0 0 20.978 11.8l290.27-.13a24.46 24.46 0 0 0 21.11-11.928 24.485 24.485 0 0 0 .682-24.26l-143.7-279.984c-4.385-8.285-12.572-13.241-21.9-13.241-9.396 0-17.572 4.988-21.882 13.342l-.003.008-.015.029-.12-.058zM215.745 910.955l-.018-1.362-1.336-.003h1.325l-1.184-.632 146.789-280.849 1.743-.134.377.77L507.435 909.31l-.617 1.514-291.072.13zM362.2 632.295L217.986 908.233l285.768-.127L362.2 632.295z" fill="#A3A3A3"/></svg>