<svg class="icon" viewBox="0 0 1024 1024" xmlns="http://www.w3.org/2000/svg" width="64" height="64"><defs><style/></defs><path d="M807.382 512.033q0-15.428-10.286-25.713L745.1 434.323 538.256 227.48q-10.285-10.286-25.713-10.286t-25.712 10.286l-51.997 51.996q-10.285 10.285-10.285 25.713t10.285 25.713l107.993 107.993H255.988q-14.856 0-25.712 10.856t-10.857 25.713v73.138q0 14.856 10.857 25.712t25.712 10.857h286.839L434.834 693.164q-10.857 10.856-10.857 25.713t10.857 25.712l51.997 51.997q10.285 10.285 25.712 10.285t25.713-10.285L745.1 589.742l51.996-51.997q10.286-10.285 10.286-25.712zm143.419 0q0 119.42-58.853 220.271T732.243 892.008t-220.271 58.854T291.7 892.008 131.996 732.304 73.143 512.033t58.853-220.272T291.7 132.057t220.272-58.853 220.271 58.853 159.705 159.704T950.8 512.033z"/></svg>